# xmcd
# 
# Track frame offsets:
#     150
#     9894
#     23521
#     36988
#     50435
#     66462
#     79744
#     90934
#     104438
#     129061
#     143573
#     155250
#     169666
#     180500
# 
# Disc length: 2604
# 
# Revision: 4
# Processed by: cddbd v1.5.2PL0 Copyright (c) Steve Scherf et al.
# Submitted via: fre:ac v1.0.31
# 
DISCID=9c0a2a0e
DTITLE=Various Artist - Christmas Favourites | CD1
DYEAR=2000
DGENRE=
TTITLE0=Dean Martin - Winter Wonderland
TTITLE1=Bing Crosby - White Christmas
TTITLE2=Frank Sinatra - Christmas dreaming
TTITLE3=Mahalia Jackson - Silent night, holy night
TTITLE4=Glenn Miller Orchestra - In the Christmas mood
TTITLE5=Engelbert Humperdinck - Winter Wonderland
TTITLE6=John Denver - Christmas for cowboys
TTITLE7=Nat King Cole - The Christmas song Oh Tannenbaum
TTITLE8=Ray Charles - Little drummer boy
TTITLE9=Doris Day - Let it snow, let it snow, let it snow
TTITLE10=Frank Sinatra - Jingle bells
TTITLE11=Jim Reeves - Mary's boy child
TTITLE12=The Ramsey Lewis Trio - Santa Claus is coming to town
TTITLE13=The Drifters - We wish you a merry Christmas
EXTD=
EXTT0=
EXTT1=
EXTT2=
EXTT3=
EXTT4=
EXTT5=
EXTT6=
EXTT7=
EXTT8=
EXTT9=
EXTT10=
EXTT11=
EXTT12=
EXTT13=
PLAYORDER=
